<?xml version="1.0" encoding="UTF-8"?>
<svg id="Layer_1" xmlns="http://www.w3.org/2000/svg" version="1.1" viewBox="0 0 127 24">
  <!-- Generator: Adobe Illustrator 29.5.0, SVG Export Plug-In . SVG Version: 2.1.0 Build 137)  -->
  <defs>
    <style>
      .st0 {
        fill: #281d57;
      }

      .st1 {
        fill: #38e18e;
      }
    </style>
  </defs>
  <path class="st0" d="M121.9,19.5c-.9,0-1.7-.2-2.4-.6s-1.2-.9-1.6-1.7c-.4-.7-.6-1.5-.6-2.4s.2-1.7.6-2.4.9-1.2,1.5-1.6c.7-.4,1.4-.6,2.3-.6s1.6.2,2.3.6c.7.4,1.2.9,1.5,1.6.4.7.6,1.4.6,2.3s0,.3,0,.5c0,.2,0,.3,0,.5h-6.2c0,.4.2.7.4,1,.2.3.5.5.7.6.3.1.6.2,1,.2s.8,0,1.2-.3c.4-.2.6-.4.8-.7l2.1.6c-.4.8-.9,1.4-1.6,1.8-.7.4-1.5.6-2.4.6ZM123.7,14c0-.3-.1-.6-.3-.9-.2-.3-.4-.5-.7-.6-.3-.2-.6-.2-.9-.2s-.6,0-.8.2-.5.4-.7.6c-.2.3-.3.6-.4.9h3.7Z"/>
  <path class="st0" d="M111.6,16.4c0,.3.2.5.4.7.2.2.4.3.6.3.2,0,.5,0,.7,0,.4,0,.8,0,1-.2.2-.2.4-.4.4-.6s0-.4-.3-.5c-.2-.1-.4-.2-.6-.3-.3,0-.5-.1-.8-.2-.3,0-.7-.2-1-.3-.4-.1-.7-.3-1-.5-.3-.2-.6-.4-.8-.7-.2-.3-.3-.7-.3-1.2s.2-1,.4-1.5c.3-.4.7-.8,1.3-1,.6-.2,1.2-.4,1.9-.4s1.6.2,2.2.5c.6.4,1,.9,1.3,1.5l-2,.6c0-.2-.2-.3-.3-.4-.1-.1-.3-.2-.5-.2-.2,0-.4,0-.6,0-.3,0-.6,0-.9.2-.2.1-.3.3-.3.6s0,.3.1.4c0,0,.2.2.3.2.2,0,.3.1.5.2.2,0,.4.1.7.2.4,0,.7.2,1.1.3.4.1.7.3,1,.5.3.2.6.5.8.8s.3.7.3,1.2c0,.5-.1,1-.4,1.4-.3.4-.7.8-1.3,1-.6.3-1.2.4-2.1.4s-1.7-.2-2.4-.6c-.6-.4-1.1-1-1.3-1.9l2.1-.6Z"/>
  <path class="st0" d="M106.6,19.4l-.2-1.1c-.3.4-.6.7-1,.9-.4.2-.9.3-1.5.3s-1.1-.1-1.6-.3c-.4-.2-.8-.5-1-.9-.3-.4-.4-.8-.4-1.4,0-.8.3-1.4.8-1.9.6-.5,1.4-.8,2.5-1l2.2-.3v-.6c0-.3-.1-.5-.3-.7-.2-.2-.6-.3-1.1-.3s-.8.1-1.1.3c-.3.2-.5.5-.6.9l-2-.7c.2-.8.7-1.4,1.4-1.9.7-.4,1.5-.6,2.5-.6s2.1.3,2.7.9c.6.6.9,1.4.9,2.3v5.9h-2.1ZM106.5,15.5l-1.9.3c-.4,0-.7.2-.9.4-.2.2-.3.4-.3.7s.1.5.3.6c.2.2.5.3.9.3s.8,0,1.1-.2c.3-.2.5-.4.7-.7s.2-.7.2-1.1h0Z"/>
  <path class="st0" d="M96.3,19.5c-.9,0-1.7-.2-2.4-.6s-1.2-.9-1.6-1.7c-.4-.7-.6-1.5-.6-2.4s.2-1.7.6-2.4.9-1.2,1.5-1.6c.7-.4,1.4-.6,2.3-.6s1.6.2,2.3.6c.7.4,1.2.9,1.5,1.6.4.7.6,1.4.6,2.3s0,.3,0,.5c0,.2,0,.3,0,.5h-6.2c0,.4.2.7.4,1,.2.3.5.5.7.6.3.1.6.2,1,.2s.8,0,1.2-.3c.4-.2.6-.4.8-.7l2.1.6c-.4.8-.9,1.4-1.6,1.8-.7.4-1.5.6-2.4.6ZM98,14c0-.3-.1-.6-.3-.9-.2-.3-.4-.5-.7-.6-.3-.2-.6-.2-.9-.2s-.6,0-.8.2-.5.4-.7.6c-.2.3-.3.6-.4.9h3.7Z"/>
  <path class="st0" d="M88.6,6.4h2.3v13h-2.3V6.4Z"/>
  <path class="st0" d="M79.6,10.4h1.2v1.3c.4-.4.7-.8,1.2-1,.5-.3,1-.4,1.6-.4s1.3.2,1.8.5c.5.3.9.7,1.2,1.3.3.6.4,1.3.4,2.2v5.2h-1.3v-5c0-.9-.2-1.6-.6-2.1-.4-.5-1-.7-1.7-.7s-1.4.3-1.8.8c-.4.5-.6,1.3-.6,2.3v4.8h-1.3v-9Z"/>
  <path class="st0" d="M74.1,19.5c-.8,0-1.6-.2-2.2-.6-.6-.4-1.2-1-1.5-1.7s-.6-1.5-.6-2.4.2-1.7.6-2.3.9-1.2,1.5-1.6c.6-.4,1.4-.6,2.2-.6s1.5.2,2.2.5c.6.4,1.2.9,1.5,1.5s.5,1.4.5,2.2c0,.1,0,.3,0,.4s0,.3,0,.5h-7c0,.6.2,1.1.4,1.5s.6.8,1,1c.4.2.9.4,1.4.4s1.3-.1,1.8-.4c.5-.3.8-.6,1.1-1.1l1.2.5c-.4.8-.9,1.3-1.6,1.7-.7.4-1.5.6-2.4.6ZM76.8,14.2c0-.5-.1-1-.3-1.4-.2-.4-.6-.7-1-.9-.4-.2-.9-.3-1.5-.3s-.9.1-1.3.3c-.4.2-.7.5-1,1-.3.4-.4.8-.5,1.4h5.5Z"/>
  <path class="st0" d="M64.8,19.5c-.8,0-1.6-.2-2.3-.6-.6-.4-1.2-1-1.5-1.7-.4-.7-.6-1.5-.6-2.4s.2-1.7.6-2.3c.4-.7.9-1.2,1.5-1.6.6-.4,1.4-.6,2.2-.6s1.5.2,2.2.5c.6.4,1.2.9,1.5,1.5s.5,1.4.5,2.2c0,.1,0,.3,0,.4s0,.3,0,.5h-7c0,.6.2,1.1.4,1.5.3.4.6.8,1,1,.4.2.9.4,1.4.4s1.3-.1,1.8-.4c.5-.3.8-.6,1.1-1.1l1.2.5c-.4.8-.9,1.3-1.6,1.7-.7.4-1.5.6-2.4.6ZM67.5,14.2c0-.5-.1-1-.3-1.4-.2-.4-.6-.7-1-.9-.4-.2-.9-.3-1.5-.3s-.9.1-1.3.3c-.4.2-.7.5-1,1-.3.4-.4.8-.4,1.4h5.5Z"/>
  <path class="st0" d="M55.5,10.4h1.2v1.3c.3-.3.6-.6.9-.8.3-.2.7-.4,1.1-.5.4,0,.9-.1,1.3,0v1.3c-.5,0-1,0-1.4,0-.4,0-.7.3-1,.5-.3.3-.5.6-.7,1-.2.4-.2.9-.2,1.4v4.7h-1.3v-9Z"/>
  <path class="st0" d="M52.5,10.6c-.5-.9-1.1-1.6-1.8-2-.8-.4-1.6-.6-2.5-.6s-1.7.2-2.5.6c-.7.4-1.3,1-1.7,1.8-.4.8-.6,1.7-.6,2.7s.2,1.9.6,2.7c.4.8,1,1.4,1.7,1.8.7.4,1.6.6,2.5.6s1.3-.1,1.9-.3c.6-.2,1.1-.6,1.5-1,.4-.4.8-1,1-1.6v-1.5h-4.3v-1.2h5.8v2.7c-.3.8-.7,1.5-1.3,2.1-.6.6-1.2,1.1-2,1.5-.8.4-1.7.5-2.6.5s-1.7-.2-2.5-.5c-.8-.3-1.4-.8-2-1.3-.6-.6-1-1.3-1.3-2-.3-.8-.5-1.7-.5-2.6s.2-1.8.5-2.6c.3-.8.8-1.5,1.3-2,.6-.6,1.2-1,2-1.3.8-.3,1.6-.5,2.5-.5s1.6.1,2.3.4c.7.3,1.4.7,1.9,1.2.6.5,1,1.1,1.3,1.9l-1.3.5Z"/>
  <path class="st1" d="M35.8,2.2c-.8-1.4-3.7-1.5-7.6-.5,1.9-.2,3.3,0,3.8.9,1.3,2.3-4.1,7.8-12.2,12.4-8.1,4.6-15.7,6.4-17.1,4.2-.4-.6-.2-1.5.3-2.5-1.8,2.1-2.6,3.9-1.9,5.1,1.6,2.7,10.6.5,20.2-4.9,9.6-5.4,16.1-12,14.5-14.7Z"/>
  <path class="st0" d="M10.7,17.7V7.2l9-4,8.5,3.8c.8-.8,1.5-1.6,1.9-2.4L19.7,0,7.8,5.3v13.3c.9-.2,1.9-.5,3-.9Z"/>
  <path class="st1" d="M28.8,10.2v10.8H10.7v-.5c-1,.4-2,.7-3,.9v2.5h24V7.5c-.8.9-1.9,1.8-3,2.8Z"/>
</svg>